<svg xmlns="http://www.w3.org/2000/svg" xmlns:xlink="http://www.w3.org/1999/xlink" xmlns:lucid="lucid" width="5260" height="1861.2"><g transform="translate(-60 -60)" lucid:page-tab-id="0_0"><path d="M0 0h5483.2v2582.4H0z" fill="#fff"/><path d="M2560 80h360v240h-360z" stroke="#000" stroke-width="2" fill="#fff"/><path d="M2560 118h360m-360 101h360" stroke="#000" stroke-width="2" fill="none"/><use xlink:href="#a" transform="matrix(1,0,0,1,2568,80) translate(144.5 22.6)"/><use xlink:href="#b" transform="matrix(1,0,0,1,2572,125.6) translate(0 46.6)"/><use xlink:href="#c" transform="matrix(1,0,0,1,2572,125.6) translate(15.5 46.6)"/><use xlink:href="#d" transform="matrix(1,0,0,1,2572,125.6) translate(34.45 46.6)"/><use xlink:href="#e" transform="matrix(1,0,0,1,2572,125.6) translate(44.45 46.6)"/><use xlink:href="#f" transform="matrix(1,0,0,1,2572,125.6) translate(122.4 46.6)"/><use xlink:href="#g" transform="matrix(1,0,0,1,2572,125.6) translate(167.35000000000002 46.6)"/><path d="M880 408h360v240H880z" stroke="#000" stroke-width="2" fill="#ef8d22"/><path d="M880 446h360M880 569h360" stroke="#000" stroke-width="2" fill="none"/><use xlink:href="#h" transform="matrix(1,0,0,1,888,408) translate(114.525 22.6)"/><use xlink:href="#b" transform="matrix(1,0,0,1,892,453.6) translate(0 46.8)"/><use xlink:href="#i" transform="matrix(1,0,0,1,892,453.6) translate(15.5 46.8)"/><use xlink:href="#d" transform="matrix(1,0,0,1,892,453.6) translate(34.45 46.8)"/><use xlink:href="#j" transform="matrix(1,0,0,1,892,453.6) translate(44.45 46.8)"/><use xlink:href="#k" transform="matrix(1,0,0,1,892,453.6) translate(0 68.4)"/><use xlink:href="#l" transform="matrix(1,0,0,1,892,453.6) translate(15.5 68.4)"/><use xlink:href="#m" transform="matrix(1,0,0,1,892,453.6) translate(84.45 68.4)"/><use xlink:href="#n" transform="matrix(1,0,0,1,892,453.6) translate(94.45 68.4)"/><path d="M720 788h360v180H720z" stroke="#000" stroke-width="2" fill="#ef8d22"/><path d="M720 826h360m-360 71h360" stroke="#000" stroke-width="2" fill="none"/><use xlink:href="#o" transform="matrix(1,0,0,1,728,788) translate(127.1 22.6)"/><path d="M1100 788h360v240h-360z" stroke="#000" stroke-width="2" fill="#ef8d22"/><path d="M1100 826h360m-360 138h360" stroke="#000" stroke-width="2" fill="none"/><use xlink:href="#p" transform="matrix(1,0,0,1,1108,788) translate(148.025 22.6)"/><use xlink:href="#k" transform="matrix(1,0,0,1,1112,833.6) translate(0 43.5)"/><use xlink:href="#q" transform="matrix(1,0,0,1,1112,833.6) translate(15.5 43.5)"/><use xlink:href="#m" transform="matrix(1,0,0,1,1112,833.6) translate(60.5 43.5)"/><use xlink:href="#r" transform="matrix(1,0,0,1,1112,833.6) translate(70.5 43.5)"/><use xlink:href="#s" transform="matrix(1,0,0,1,1112,833.6) translate(148.45 43.5)"/><use xlink:href="#t" transform="matrix(1,0,0,1,1112,833.6) translate(193.39999999999998 43.5)"/><use xlink:href="#k" transform="matrix(1,0,0,1,1112,833.6) translate(0 65.10000000000001)"/><use xlink:href="#u" transform="matrix(1,0,0,1,1112,833.6) translate(15.5 65.10000000000001)"/><use xlink:href="#m" transform="matrix(1,0,0,1,1112,833.6) translate(34.45 65.10000000000001)"/><use xlink:href="#r" transform="matrix(1,0,0,1,1112,833.6) translate(44.45 65.10000000000001)"/><use xlink:href="#t" transform="matrix(1,0,0,1,1112,833.6) translate(122.4 65.10000000000001)"/><use xlink:href="#b" transform="matrix(1,0,0,1,1112,833.6) translate(0 86.70000000000002)"/><use xlink:href="#v" transform="matrix(1,0,0,1,1112,833.6) translate(15.5 86.70000000000002)"/><use xlink:href="#d" transform="matrix(1,0,0,1,1112,833.6) translate(51.45 86.70000000000002)"/><use xlink:href="#e" transform="matrix(1,0,0,1,1112,833.6) translate(61.45 86.70000000000002)"/><use xlink:href="#f" transform="matrix(1,0,0,1,1112,833.6) translate(139.4 86.70000000000002)"/><use xlink:href="#g" transform="matrix(1,0,0,1,1112,833.6) translate(184.35000000000002 86.70000000000002)"/><path d="M1061 406.95l1670.52-85" stroke="#000" stroke-width="2" fill="none"/><path d="M1061.03 407H1057l-.05-.85 4.02-.2z"/><path d="M2746.77 321.16l-14 5.36-.48-9.26z" stroke="#000" stroke-width="2"/><path d="M900.77 786.36l151-125.53" stroke="#000" stroke-width="2" fill="none"/><path d="M901.33 787h-2.9l1.72-1.42z"/><path d="M1063.5 651.07l-8 12.68-5.92-7.13z" stroke="#000" stroke-width="2"/><path d="M1279.15 786.47l-203.48-127.64" stroke="#000" stroke-width="2" fill="none"/><path d="M1281.88 787h-3.1l.88-1.4z"/><path d="M1062.74 650.72l14.55 3.65-4.94 7.86z" stroke="#000" stroke-width="2"/><path d="M1220 1291.2h360v240h-360z" stroke="#000" stroke-width="2" fill="#83bbe5"/><path d="M1220 1329h360m-360 101h360" stroke="#000" stroke-width="2" fill="none"/><use xlink:href="#w" transform="matrix(1,0,0,1,1228,1291.1999999999998) translate(126.525 22.6)"/><use xlink:href="#k" transform="matrix(1,0,0,1,1232,1336.7999999999997) translate(0 46.6)"/><use xlink:href="#x" transform="matrix(1,0,0,1,1232,1336.7999999999997) translate(15.5 46.6)"/><use xlink:href="#m" transform="matrix(1,0,0,1,1232,1336.7999999999997) translate(65.45 46.6)"/><use xlink:href="#y" transform="matrix(1,0,0,1,1232,1336.7999999999997) translate(75.45 46.6)"/><path d="M1400.8 1289.6L2725 331.85" stroke="#000" stroke-width="2" fill="none"/><path d="M1401.27 1290.2h-2.98l1.94-1.4z"/><path d="M2737.38 322.9l-8.84 12.1-5.44-7.5z" stroke="#000" stroke-width="2"/><path d="M460 1661.2h360v240H460z" stroke="#000" stroke-width="2" fill="#83bbe5"/><path d="M460 1699h360m-360 101h360" stroke="#000" stroke-width="2" fill="none"/><use xlink:href="#z" transform="matrix(1,0,0,1,468,1661.1999999999998) translate(151.575 22.6)"/><use xlink:href="#b" transform="matrix(1,0,0,1,472,1706.7999999999997) translate(0 46.6)"/><use xlink:href="#A" transform="matrix(1,0,0,1,472,1706.7999999999997) translate(15.5 46.6)"/><use xlink:href="#d" transform="matrix(1,0,0,1,472,1706.7999999999997) translate(60.5 46.6)"/><use xlink:href="#e" transform="matrix(1,0,0,1,472,1706.7999999999997) translate(70.5 46.6)"/><use xlink:href="#f" transform="matrix(1,0,0,1,472,1706.7999999999997) translate(148.45 46.6)"/><use xlink:href="#g" transform="matrix(1,0,0,1,472,1706.7999999999997) translate(193.39999999999998 46.6)"/><path d="M641 1660.03l740.76-124.76" stroke="#000" stroke-width="2" fill="none"/><path d="M641.04 1660.2h-4.08l-.08-.5 3.97-.66z"/><path d="M1396.8 1532.74l-13.3 6.94-1.53-9.14z" stroke="#000" stroke-width="2"/><path d="M80 1661.2h360v240H80z" stroke="#000" stroke-width="2" fill="#83bbe5"/><path d="M80 1699h360M80 1847h360" stroke="#000" stroke-width="2" fill="none"/><use xlink:href="#B" transform="matrix(1,0,0,1,88,1661.1999999999998) translate(146.025 22.6)"/><use xlink:href="#b" transform="matrix(1,0,0,1,92,1706.7999999999997) translate(0 37.69999999999999)"/><use xlink:href="#C" transform="matrix(1,0,0,1,92,1706.7999999999997) translate(15.5 37.69999999999999)"/><use xlink:href="#d" transform="matrix(1,0,0,1,92,1706.7999999999997) translate(115.4 37.69999999999999)"/><use xlink:href="#e" transform="matrix(1,0,0,1,92,1706.7999999999997) translate(125.4 37.69999999999999)"/><use xlink:href="#j" transform="matrix(1,0,0,1,92,1706.7999999999997) translate(203.35000000000002 37.69999999999999)"/><use xlink:href="#b" transform="matrix(1,0,0,1,92,1706.7999999999997) translate(0 59.29999999999999)"/><use xlink:href="#D" transform="matrix(1,0,0,1,92,1706.7999999999997) translate(15.5 59.29999999999999)"/><use xlink:href="#d" transform="matrix(1,0,0,1,92,1706.7999999999997) translate(132.35000000000002 59.29999999999999)"/><use xlink:href="#e" transform="matrix(1,0,0,1,92,1706.7999999999997) translate(142.35000000000002 59.29999999999999)"/><use xlink:href="#j" transform="matrix(1,0,0,1,92,1706.7999999999997) translate(220.3 59.29999999999999)"/><use xlink:href="#b" transform="matrix(1,0,0,1,92,1706.7999999999997) translate(0 80.9)"/><use xlink:href="#E" transform="matrix(1,0,0,1,92,1706.7999999999997) translate(15.5 80.9)"/><use xlink:href="#d" transform="matrix(1,0,0,1,92,1706.7999999999997) translate(55.5 80.9)"/><use xlink:href="#F" transform="matrix(1,0,0,1,92,1706.7999999999997) translate(65.5 80.9)"/><use xlink:href="#b" transform="matrix(1,0,0,1,92,1706.7999999999997) translate(0 102.5)"/><use xlink:href="#G" transform="matrix(1,0,0,1,92,1706.7999999999997) translate(15.5 102.5)"/><use xlink:href="#d" transform="matrix(1,0,0,1,92,1706.7999999999997) translate(59.5 102.5)"/><use xlink:href="#e" transform="matrix(1,0,0,1,92,1706.7999999999997) translate(69.5 102.5)"/><use xlink:href="#f" transform="matrix(1,0,0,1,92,1706.7999999999997) translate(147.45 102.5)"/><use xlink:href="#g" transform="matrix(1,0,0,1,92,1706.7999999999997) translate(192.39999999999998 102.5)"/><path d="M261 1660.1l1128.6-125.85" stroke="#000" stroke-width="2" fill="none"/><path d="M261.03 1660.2h-4.05l-.07-.66 4-.45z"/><path d="M1404.78 1532.56l-13.66 6.2-1.03-9.23z" stroke="#000" stroke-width="2"/><path d="M840 1661.2h360v240H840z" stroke="#000" stroke-width="2" fill="#83bbe5"/><path d="M840 1699h360m-360 124h360" stroke="#000" stroke-width="2" fill="none"/><use xlink:href="#H" transform="matrix(1,0,0,1,848,1661.1999999999998) translate(152.525 22.6)"/><use xlink:href="#b" transform="matrix(1,0,0,1,852,1706.7999999999997) translate(0 46.8)"/><use xlink:href="#I" transform="matrix(1,0,0,1,852,1706.7999999999997) translate(15.5 46.8)"/><use xlink:href="#d" transform="matrix(1,0,0,1,852,1706.7999999999997) translate(88.45 46.8)"/><use xlink:href="#J" transform="matrix(1,0,0,1,852,1706.7999999999997) translate(98.45 46.8)"/><use xlink:href="#b" transform="matrix(1,0,0,1,852,1706.7999999999997) translate(0 68.4)"/><use xlink:href="#K" transform="matrix(1,0,0,1,852,1706.7999999999997) translate(15.5 68.4)"/><use xlink:href="#d" transform="matrix(1,0,0,1,852,1706.7999999999997) translate(57.45 68.4)"/><use xlink:href="#L" transform="matrix(1,0,0,1,852,1706.7999999999997) translate(67.45 68.4)"/><path d="M1020.95 1659.88l361.52-121.77" stroke="#000" stroke-width="2" fill="none"/><path d="M1021.08 1660.2h-4.2l3.77-1.28z"/><path d="M1396.93 1533.23l-12.04 8.95-2.97-8.8z" stroke="#000" stroke-width="2"/><path d="M1220 1661.2h360v240h-360z" stroke="#000" stroke-width="2" fill="#83bbe5"/><path d="M1220 1699h360m-360 138h360" stroke="#000" stroke-width="2" fill="none"/><use xlink:href="#M" transform="matrix(1,0,0,1,1228,1661.1999999999998) translate(133.575 22.6)"/><use xlink:href="#b" transform="matrix(1,0,0,1,1232,1706.7999999999997) translate(0 43.5)"/><use xlink:href="#C" transform="matrix(1,0,0,1,1232,1706.7999999999997) translate(15.5 43.5)"/><use xlink:href="#d" transform="matrix(1,0,0,1,1232,1706.7999999999997) translate(115.4 43.5)"/><use xlink:href="#e" transform="matrix(1,0,0,1,1232,1706.7999999999997) translate(125.4 43.5)"/><use xlink:href="#j" transform="matrix(1,0,0,1,1232,1706.7999999999997) translate(203.35000000000002 43.5)"/><use xlink:href="#b" transform="matrix(1,0,0,1,1232,1706.7999999999997) translate(0 65.10000000000001)"/><use xlink:href="#I" transform="matrix(1,0,0,1,1232,1706.7999999999997) translate(15.5 65.10000000000001)"/><use xlink:href="#d" transform="matrix(1,0,0,1,1232,1706.7999999999997) translate(88.45 65.10000000000001)"/><use xlink:href="#J" transform="matrix(1,0,0,1,1232,1706.7999999999997) translate(98.45 65.10000000000001)"/><use xlink:href="#b" transform="matrix(1,0,0,1,1232,1706.7999999999997) translate(0 86.70000000000002)"/><use xlink:href="#D" transform="matrix(1,0,0,1,1232,1706.7999999999997) translate(15.5 86.70000000000002)"/><use xlink:href="#d" transform="matrix(1,0,0,1,1232,1706.7999999999997) translate(132.35000000000002 86.70000000000002)"/><use xlink:href="#e" transform="matrix(1,0,0,1,1232,1706.7999999999997) translate(142.35000000000002 86.70000000000002)"/><use xlink:href="#g" transform="matrix(1,0,0,1,1232,1706.7999999999997) translate(220.3 86.70000000000002)"/><path d="M1400 1659.2v-108.5" stroke="#000" stroke-width="2" fill="none"/><path d="M1401 1660.2h-2v-1.03h2z"/><path d="M1400 1535.44l4.64 14.26h-9.28z" stroke="#000" stroke-width="2"/><path d="M1600 1661.2h360v240h-360z" stroke="#000" stroke-width="2" fill="#83bbe5"/><path d="M1600 1699h360m-360 148h360" stroke="#000" stroke-width="2" fill="none"/><use xlink:href="#N" transform="matrix(1,0,0,1,1608,1661.1999999999998) translate(157.5 22.6)"/><use xlink:href="#b" transform="matrix(1,0,0,1,1612,1706.7999999999997) translate(0 37.69999999999999)"/><use xlink:href="#C" transform="matrix(1,0,0,1,1612,1706.7999999999997) translate(15.5 37.69999999999999)"/><use xlink:href="#d" transform="matrix(1,0,0,1,1612,1706.7999999999997) translate(115.4 37.69999999999999)"/><use xlink:href="#e" transform="matrix(1,0,0,1,1612,1706.7999999999997) translate(125.4 37.69999999999999)"/><use xlink:href="#j" transform="matrix(1,0,0,1,1612,1706.7999999999997) translate(203.35000000000002 37.69999999999999)"/><use xlink:href="#b" transform="matrix(1,0,0,1,1612,1706.7999999999997) translate(0 59.29999999999999)"/><use xlink:href="#I" transform="matrix(1,0,0,1,1612,1706.7999999999997) translate(15.5 59.29999999999999)"/><use xlink:href="#d" transform="matrix(1,0,0,1,1612,1706.7999999999997) translate(88.45 59.29999999999999)"/><use xlink:href="#J" transform="matrix(1,0,0,1,1612,1706.7999999999997) translate(98.45 59.29999999999999)"/><use xlink:href="#b" transform="matrix(1,0,0,1,1612,1706.7999999999997) translate(0 80.9)"/><use xlink:href="#D" transform="matrix(1,0,0,1,1612,1706.7999999999997) translate(15.5 80.9)"/><use xlink:href="#d" transform="matrix(1,0,0,1,1612,1706.7999999999997) translate(132.35000000000002 80.9)"/><use xlink:href="#e" transform="matrix(1,0,0,1,1612,1706.7999999999997) translate(142.35000000000002 80.9)"/><use xlink:href="#j" transform="matrix(1,0,0,1,1612,1706.7999999999997) translate(220.3 80.9)"/><use xlink:href="#b" transform="matrix(1,0,0,1,1612,1706.7999999999997) translate(0 102.5)"/><use xlink:href="#O" transform="matrix(1,0,0,1,1612,1706.7999999999997) translate(15.5 102.5)"/><use xlink:href="#P" transform="matrix(1,0,0,1,1612,1706.7999999999997) translate(68.5 102.5)"/><use xlink:href="#e" transform="matrix(1,0,0,1,1612,1706.7999999999997) translate(83.5 102.5)"/><use xlink:href="#g" transform="matrix(1,0,0,1,1612,1706.7999999999997) translate(161.45 102.5)"/><path d="M1779.05 1659.88l-361.52-121.77" stroke="#000" stroke-width="2" fill="none"/><path d="M1783.13 1660.2h-4.2l.42-1.28z"/><path d="M1403.07 1533.23l15 .16-2.96 8.78z" stroke="#000" stroke-width="2"/><path d="M1980 1661.2h360v240h-360z" stroke="#000" stroke-width="2" fill="#83bbe5"/><path d="M1980 1699h360m-360 148h360" stroke="#000" stroke-width="2" fill="none"/><g><use xlink:href="#Q" transform="matrix(1,0,0,1,1988,1661.1999999999998) translate(139.05 22.6)"/></g><g><use xlink:href="#b" transform="matrix(1,0,0,1,1992,1706.7999999999997) translate(0 37.69999999999999)"/><use xlink:href="#I" transform="matrix(1,0,0,1,1992,1706.7999999999997) translate(15.5 37.69999999999999)"/><use xlink:href="#d" transform="matrix(1,0,0,1,1992,1706.7999999999997) translate(88.45 37.69999999999999)"/><use xlink:href="#J" transform="matrix(1,0,0,1,1992,1706.7999999999997) translate(98.45 37.69999999999999)"/><use xlink:href="#k" transform="matrix(1,0,0,1,1992,1706.7999999999997) translate(0 59.29999999999999)"/><use xlink:href="#u" transform="matrix(1,0,0,1,1992,1706.7999999999997) translate(15.5 59.29999999999999)"/><use xlink:href="#m" transform="matrix(1,0,0,1,1992,1706.7999999999997) translate(34.45 59.29999999999999)"/><use xlink:href="#r" transform="matrix(1,0,0,1,1992,1706.7999999999997) translate(44.45 59.29999999999999)"/><use xlink:href="#t" transform="matrix(1,0,0,1,1992,1706.7999999999997) translate(122.4 59.29999999999999)"/><use xlink:href="#b" transform="matrix(1,0,0,1,1992,1706.7999999999997) translate(0 80.9)"/><use xlink:href="#v" transform="matrix(1,0,0,1,1992,1706.7999999999997) translate(15.5 80.9)"/><use xlink:href="#d" transform="matrix(1,0,0,1,1992,1706.7999999999997) translate(51.45 80.9)"/><use xlink:href="#e" transform="matrix(1,0,0,1,1992,1706.7999999999997) translate(61.45 80.9)"/><use xlink:href="#f" transform="matrix(1,0,0,1,1992,1706.7999999999997) translate(139.4 80.9)"/><use xlink:href="#j" transform="matrix(1,0,0,1,1992,1706.7999999999997) translate(184.35000000000002 80.9)"/><use xlink:href="#k" transform="matrix(1,0,0,1,1992,1706.7999999999997) translate(0 102.5)"/><use xlink:href="#R" transform="matrix(1,0,0,1,1992,1706.7999999999997) translate(15.5 102.5)"/><use xlink:href="#m" transform="matrix(1,0,0,1,1992,1706.7999999999997) translate(68.5 102.5)"/><use xlink:href="#r" transform="matrix(1,0,0,1,1992,1706.7999999999997) translate(78.5 102.5)"/><use xlink:href="#S" transform="matrix(1,0,0,1,1992,1706.7999999999997) translate(156.45 102.5)"/></g><path d="M2159 1660.03l-740.76-124.76" stroke="#000" stroke-width="2" fill="none"/><path d="M2163.12 1659.7l-.08.5h-4.08l.2-1.16z"/><path d="M1403.2 1532.74l14.83-2.2-1.54 9.14z" stroke="#000" stroke-width="2"/><path d="M2360 1661.2h360v240h-360z" stroke="#000" stroke-width="2" fill="#83bbe5"/><path d="M2360 1699h360m-360 101h360" stroke="#000" stroke-width="2" fill="none"/><g><use xlink:href="#T" transform="matrix(1,0,0,1,2368,1661.1999999999998) translate(146.05 22.6)"/></g><path d="M2539 1660.1l-1120.6-125.84" stroke="#000" stroke-width="2" fill="none"/><path d="M2543.1 1659.54l-.08.66h-4.05l.12-1.1z"/><path d="M1403.22 1532.56l14.7-3-1.04 9.2z" stroke="#000" stroke-width="2"/><path d="M4180 409h360v240h-360z" stroke="#000" stroke-width="2" fill="#5eb7d2"/><path d="M4180 447h360m-360 101h360" stroke="#000" stroke-width="2" fill="none"/><g><use xlink:href="#U" transform="matrix(1,0,0,1,4188,409) translate(124.05 22.6)"/></g><path d="M4359 407.95L2758.48 322" stroke="#000" stroke-width="2" fill="none"/><path d="M4363.05 407.16l-.05.84h-4.03l.06-1.05z"/><path d="M2743.23 321.17l14.5-3.86-.5 9.27z" stroke="#000" stroke-width="2"/><path d="M4180 758h360v320h-360z" stroke="#000" stroke-width="2" fill="#5eb7d2"/><path d="M4180 796h360m-360 235h360" stroke="#000" stroke-width="2" fill="none"/><g><use xlink:href="#V" transform="matrix(1,0,0,1,4188,758) translate(130.05 22.6)"/></g><g><use xlink:href="#k" transform="matrix(1,0,0,1,4192,803.6) translate(0 38.00000000000001)"/><use xlink:href="#W" transform="matrix(1,0,0,1,4192,803.6) translate(15.5 38.00000000000001)"/><use xlink:href="#m" transform="matrix(1,0,0,1,4192,803.6) translate(78.45 38.00000000000001)"/><use xlink:href="#r" transform="matrix(1,0,0,1,4192,803.6) translate(88.45 38.00000000000001)"/><use xlink:href="#s" transform="matrix(1,0,0,1,4192,803.6) translate(166.4 38.00000000000001)"/><use xlink:href="#t" transform="matrix(1,0,0,1,4192,803.6) translate(211.35000000000002 38.00000000000001)"/><use xlink:href="#b" transform="matrix(1,0,0,1,4192,803.6) translate(0 59.60000000000001)"/><use xlink:href="#X" transform="matrix(1,0,0,1,4192,803.6) translate(15.5 59.60000000000001)"/><use xlink:href="#d" transform="matrix(1,0,0,1,4192,803.6) translate(136.3 59.60000000000001)"/><use xlink:href="#e" transform="matrix(1,0,0,1,4192,803.6) translate(146.3 59.60000000000001)"/><use xlink:href="#f" transform="matrix(1,0,0,1,4192,803.6) translate(224.25 59.60000000000001)"/><use xlink:href="#j" transform="matrix(1,0,0,1,4192,803.6) translate(269.2 59.60000000000001)"/><use xlink:href="#b" transform="matrix(1,0,0,1,4192,803.6) translate(0 81.20000000000002)"/><use xlink:href="#i" transform="matrix(1,0,0,1,4192,803.6) translate(15.5 81.20000000000002)"/><use xlink:href="#d" transform="matrix(1,0,0,1,4192,803.6) translate(34.45 81.20000000000002)"/><use xlink:href="#e" transform="matrix(1,0,0,1,4192,803.6) translate(44.45 81.20000000000002)"/><use xlink:href="#j" transform="matrix(1,0,0,1,4192,803.6) translate(122.4 81.20000000000002)"/><use xlink:href="#b" transform="matrix(1,0,0,1,4192,803.6) translate(0 102.80000000000003)"/><use xlink:href="#v" transform="matrix(1,0,0,1,4192,803.6) translate(15.5 102.80000000000003)"/><use xlink:href="#d" transform="matrix(1,0,0,1,4192,803.6) translate(51.45 102.80000000000003)"/><use xlink:href="#e" transform="matrix(1,0,0,1,4192,803.6) translate(61.45 102.80000000000003)"/><use xlink:href="#j" transform="matrix(1,0,0,1,4192,803.6) translate(139.4 102.80000000000003)"/><use xlink:href="#Y" transform="matrix(1,0,0,1,4192,803.6) translate(0 124.40000000000002)"/><use xlink:href="#Y" transform="matrix(1,0,0,1,4192,803.6) translate(0 146.00000000000003)"/><use xlink:href="#Z" transform="matrix(1,0,0,1,4192,803.6) translate(0 167.6)"/><use xlink:href="#aa" transform="matrix(1,0,0,1,4192,803.6) translate(0 189.20000000000002)"/></g><g><use xlink:href="#b" transform="matrix(1,0,0,1,4192,1039.0996466431095) translate(0 19.1)"/><use xlink:href="#ab" transform="matrix(1,0,0,1,4192,1039.0996466431095) translate(15.5 19.1)"/></g><path d="M3800 758h360v240h-360z" stroke="#000" stroke-width="2" fill="#5eb7d2"/><path d="M3800 796h360m-360 101h360" stroke="#000" stroke-width="2" fill="none"/><g><use xlink:href="#ac" transform="matrix(1,0,0,1,3808,758) translate(138.525 22.6)"/></g><path d="M4560 758h360v240h-360z" stroke="#000" stroke-width="2" fill="#5eb7d2"/><path d="M4560 796h360m-360 101h360" stroke="#000" stroke-width="2" fill="none"/><g><use xlink:href="#ad" transform="matrix(1,0,0,1,4568,758) translate(160 22.6)"/></g><path d="M3980.96 756.73L4342.2 655" stroke="#000" stroke-width="2" fill="none"/><path d="M3981.07 757h-4.2l-.03-.15 3.88-1.1z"/><path d="M4356.9 650.88l-12.5 8.33-2.5-8.92z" stroke="#000" stroke-width="2"/><path d="M4739.04 756.73L4377.8 655" stroke="#000" stroke-width="2" fill="none"/><path d="M4743.16 756.85l-.04.15h-4.2l.36-1.24z"/><path d="M4363.1 650.88l15-.6-2.5 8.93z" stroke="#000" stroke-width="2"/><path d="M4360 756v-87.5" stroke="#000" stroke-width="2" fill="none"/><path d="M4361 757h-2v-1.03h2z"/><path d="M4360 653.24l4.64 14.26h-9.28z" stroke="#000" stroke-width="2"/><path d="M3880 1291.2h360v240h-360z" stroke="#000" stroke-width="2" fill="#7ab648"/><path d="M3880 1329h360m-360 101h360" stroke="#000" stroke-width="2" fill="none"/><g><use xlink:href="#ae" transform="matrix(1,0,0,1,3888,1291.1999999999998) translate(129.05 22.6)"/></g><g><use xlink:href="#k" transform="matrix(1,0,0,1,3892,1336.7999999999997) translate(0 46.6)"/><use xlink:href="#x" transform="matrix(1,0,0,1,3892,1336.7999999999997) translate(15.5 46.6)"/><use xlink:href="#m" transform="matrix(1,0,0,1,3892,1336.7999999999997) translate(65.45 46.6)"/><use xlink:href="#y" transform="matrix(1,0,0,1,3892,1336.7999999999997) translate(75.45 46.6)"/></g><path d="M2840 1661.2h360v240h-360z" stroke="#000" stroke-width="2" fill="#7ab648"/><path d="M2840 1699h360m-360 138h360" stroke="#000" stroke-width="2" fill="none"/><g><use xlink:href="#af" transform="matrix(1,0,0,1,2848,1661.1999999999998) translate(146.025 22.6)"/></g><g><use xlink:href="#k" transform="matrix(1,0,0,1,2852,1706.7999999999997) translate(0 43.5)"/><use xlink:href="#ag" transform="matrix(1,0,0,1,2852,1706.7999999999997) translate(15.5 43.5)"/><use xlink:href="#m" transform="matrix(1,0,0,1,2852,1706.7999999999997) translate(115.4 43.5)"/><use xlink:href="#r" transform="matrix(1,0,0,1,2852,1706.7999999999997) translate(125.4 43.5)"/><use xlink:href="#t" transform="matrix(1,0,0,1,2852,1706.7999999999997) translate(203.35000000000002 43.5)"/><use xlink:href="#k" transform="matrix(1,0,0,1,2852,1706.7999999999997) translate(0 65.10000000000001)"/><use xlink:href="#ah" transform="matrix(1,0,0,1,2852,1706.7999999999997) translate(15.5 65.10000000000001)"/><use xlink:href="#m" transform="matrix(1,0,0,1,2852,1706.7999999999997) translate(132.35000000000002 65.10000000000001)"/><use xlink:href="#r" transform="matrix(1,0,0,1,2852,1706.7999999999997) translate(142.35000000000002 65.10000000000001)"/><use xlink:href="#t" transform="matrix(1,0,0,1,2852,1706.7999999999997) translate(220.3 65.10000000000001)"/><use xlink:href="#k" transform="matrix(1,0,0,1,2852,1706.7999999999997) translate(0 86.70000000000002)"/><use xlink:href="#ai" transform="matrix(1,0,0,1,2852,1706.7999999999997) translate(15.5 86.70000000000002)"/><use xlink:href="#m" transform="matrix(1,0,0,1,2852,1706.7999999999997) translate(55.5 86.70000000000002)"/><use xlink:href="#aj" transform="matrix(1,0,0,1,2852,1706.7999999999997) translate(65.5 86.70000000000002)"/></g><path d="M3021 1660.08l1020.64-125.62" stroke="#000" stroke-width="2" fill="none"/><path d="M3021.03 1660.2h-4.05l-.08-.63 4-.5z"/><path d="M4056.8 1532.6l-13.6 6.34-1.14-9.2z" stroke="#000" stroke-width="2"/><path d="M3260 1661.2h360v240h-360z" stroke="#000" stroke-width="2" fill="#7ab648"/><path d="M3260 1699h360m-360 101h360" stroke="#000" stroke-width="2" fill="none"/><g><use xlink:href="#ak" transform="matrix(1,0,0,1,3268,1661.1999999999534) translate(152.525 22.6)"/></g><g><use xlink:href="#k" transform="matrix(1,0,0,1,3272,1706.7999999999533) translate(0 46.6)"/><use xlink:href="#al" transform="matrix(1,0,0,1,3272,1706.7999999999533) translate(15.5 46.6)"/><use xlink:href="#n" transform="matrix(1,0,0,1,3272,1706.7999999999533) translate(62.45 46.6)"/></g><path d="M3440.98 1660l600.9-124.06" stroke="#000" stroke-width="2" fill="none"/><path d="M3441.05 1660.2h-4.1l-.1-.37 3.95-.82z"/><path d="M4056.83 1532.85l-13.03 7.43-1.88-9.08z" stroke="#000" stroke-width="2"/><path d="M3680 1661.2h360v240h-360z" stroke="#000" stroke-width="2" fill="#7ab648"/><path d="M3680 1699h360m-360 101h360" stroke="#000" stroke-width="2" fill="none"/><g><use xlink:href="#am" transform="matrix(1,0,0,1,3688,1661.1999999999998) translate(133.575 22.6)"/></g><g><use xlink:href="#k" transform="matrix(1,0,0,1,3692,1706.7999999999997) translate(0 46.6)"/><use xlink:href="#an" transform="matrix(1,0,0,1,3692,1706.7999999999997) translate(15.5 46.6)"/><use xlink:href="#m" transform="matrix(1,0,0,1,3692,1706.7999999999997) translate(93.4 46.6)"/><use xlink:href="#n" transform="matrix(1,0,0,1,3692,1706.7999999999997) translate(103.4 46.6)"/></g><path d="M3860.84 1659.66l183.58-117.5" stroke="#000" stroke-width="2" fill="none"/><path d="M3861.22 1660.2h-3.08l2.18-1.4z"/><path d="M4057.27 1533.94l-9.5 11.6-5-7.8z" stroke="#000" stroke-width="2"/><path d="M4520 1661.2h360v240h-360z" stroke="#000" stroke-width="2" fill="#7ab648"/><path d="M4520 1699h360m-360 148h360" stroke="#000" stroke-width="2" fill="none"/><g><use xlink:href="#ao" transform="matrix(1,0,0,1,4528,1661.1999999999998) translate(139.05 22.6)"/></g><g><use xlink:href="#k" transform="matrix(1,0,0,1,4532,1706.7999999999997) translate(0 37.69999999999999)"/><use xlink:href="#ap" transform="matrix(1,0,0,1,4532,1706.7999999999997) translate(15.5 37.69999999999999)"/><use xlink:href="#m" transform="matrix(1,0,0,1,4532,1706.7999999999997) translate(88.45 37.69999999999999)"/><use xlink:href="#aq" transform="matrix(1,0,0,1,4532,1706.7999999999997) translate(98.45 37.69999999999999)"/><use xlink:href="#k" transform="matrix(1,0,0,1,4532,1706.7999999999997) translate(0 59.29999999999999)"/><use xlink:href="#u" transform="matrix(1,0,0,1,4532,1706.7999999999997) translate(15.5 59.29999999999999)"/><use xlink:href="#m" transform="matrix(1,0,0,1,4532,1706.7999999999997) translate(34.45 59.29999999999999)"/><use xlink:href="#r" transform="matrix(1,0,0,1,4532,1706.7999999999997) translate(44.45 59.29999999999999)"/><use xlink:href="#t" transform="matrix(1,0,0,1,4532,1706.7999999999997) translate(122.4 59.29999999999999)"/><use xlink:href="#k" transform="matrix(1,0,0,1,4532,1706.7999999999997) translate(0 80.9)"/><use xlink:href="#ar" transform="matrix(1,0,0,1,4532,1706.7999999999997) translate(15.5 80.9)"/><use xlink:href="#m" transform="matrix(1,0,0,1,4532,1706.7999999999997) translate(51.45 80.9)"/><use xlink:href="#r" transform="matrix(1,0,0,1,4532,1706.7999999999997) translate(61.45 80.9)"/><use xlink:href="#s" transform="matrix(1,0,0,1,4532,1706.7999999999997) translate(139.4 80.9)"/><use xlink:href="#t" transform="matrix(1,0,0,1,4532,1706.7999999999997) translate(184.35000000000002 80.9)"/><use xlink:href="#k" transform="matrix(1,0,0,1,4532,1706.7999999999997) translate(0 102.5)"/><use xlink:href="#ah" transform="matrix(1,0,0,1,4532,1706.7999999999997) translate(15.5 102.5)"/><use xlink:href="#m" transform="matrix(1,0,0,1,4532,1706.7999999999997) translate(132.35000000000002 102.5)"/><use xlink:href="#r" transform="matrix(1,0,0,1,4532,1706.7999999999997) translate(142.35000000000002 102.5)"/><use xlink:href="#S" transform="matrix(1,0,0,1,4532,1706.7999999999997) translate(220.3 102.5)"/></g><path d="M4699.02 1660l-620.88-124.17" stroke="#000" stroke-width="2" fill="none"/><path d="M4703.14 1659.8l-.08.4h-4.1l.23-1.18z"/><path d="M4063.17 1532.83l14.9-1.74-1.82 9.08z" stroke="#000" stroke-width="2"/><path d="M4100 1661.2h360v240h-360z" stroke="#000" stroke-width="2" fill="#7ab648"/><path d="M4100 1699h360m-360 101h360" stroke="#000" stroke-width="2" fill="none"/><g><use xlink:href="#as" transform="matrix(1,0,0,1,4108,1661.1999999999998) translate(146.05 22.6)"/></g><path d="M4279.14 1659.7L4076 1541.5" stroke="#000" stroke-width="2" fill="none"/><path d="M4282 1660.2h-3.2l.82-1.38z"/><path d="M4062.8 1533.83l14.66 3.17-4.66 8z" stroke="#000" stroke-width="2"/><path d="M4059.2 1289.6L2754.9 331.96" stroke="#000" stroke-width="2" fill="none"/><path d="M4061.7 1290.2h-2.97l1.04-1.4z"/><path d="M2742.6 322.92l14.25 4.7-5.5 7.47z" stroke="#000" stroke-width="2"/><path d="M4940 1661.2h360v240h-360z" stroke="#000" stroke-width="2" fill="#7ab648"/><path d="M4940 1699h360m-360 101h360" stroke="#000" stroke-width="2" fill="none"/><g><use xlink:href="#at" transform="matrix(1,0,0,1,4948,1661.1999999999534) translate(160.075 22.6)"/></g><g><use xlink:href="#k" transform="matrix(1,0,0,1,4952,1706.7999999999533) translate(0 46.6)"/><use xlink:href="#q" transform="matrix(1,0,0,1,4952,1706.7999999999533) translate(15.5 46.6)"/><use xlink:href="#m" transform="matrix(1,0,0,1,4952,1706.7999999999533) translate(60.5 46.6)"/><use xlink:href="#r" transform="matrix(1,0,0,1,4952,1706.7999999999533) translate(70.5 46.6)"/><use xlink:href="#s" transform="matrix(1,0,0,1,4952,1706.7999999999533) translate(148.45 46.6)"/><use xlink:href="#S" transform="matrix(1,0,0,1,4952,1706.7999999999533) translate(193.39999999999998 46.6)"/></g><path d="M5119 1660.08l-1040.63-125.66" stroke="#000" stroke-width="2" fill="none"/><path d="M5123.1 1659.57l-.08.63h-4.05l.13-1.12z"/><path d="M4063.2 1532.6l14.73-2.9-1.1 9.2z" stroke="#000" stroke-width="2"/><defs><path d="M238-179c0 84-86 86-175 82L45 0H11l48-248c82 0 179-12 179 69zm-34 1c0-53-64-42-116-43l-19 98c63 0 135 9 135-55" id="au"/><path d="M165-48c-4 18 1 34 23 27l-3 20c-29 8-62 0-52-35h-2C116-14 99 4 63 4 30 4 8-16 8-49c0-68 71-67 138-67 10-26 0-56-31-54-26 1-42 9-47 31l-32-5c8-67 160-71 144 15-5 28-9 54-15 81zM42-50c3 52 80 24 89-6 7-12 7-24 11-38-47 1-103-4-100 44" id="av"/><path d="M44-68c0 29 11 47 38 47 30 0 42-19 51-41l28 9C148-21 126 4 82 4 31 4 10-29 12-85c3-77 74-140 146-93 12 8 15 23 18 40l-31 5c-1-22-13-36-36-36-52 0-65 49-65 101" id="aw"/><path d="M127 0L80-88 50-66 37 0H6l51-261h31L57-100l99-90h39l-93 82L161 0h-34" id="ax"/><path d="M111-194c62-3 86 47 72 106H45c-7 38 6 69 45 68 27-1 43-14 53-32l24 11C152-15 129 4 87 4 38 3 12-23 12-71c0-70 32-119 99-123zm44 81c14-66-71-72-95-28-4 8-8 17-11 28h106" id="ay"/><path d="M51-54c-9 22 5 41 31 30L79-1C43 14 10-4 19-52l22-115H19l5-23h22l19-43h21l-9 43h35l-4 23H73" id="az"/><g id="a"><use transform="matrix(0.05,0,0,0.05,0,0)" xlink:href="#au"/><use transform="matrix(0.05,0,0,0.05,12,0)" xlink:href="#av"/><use transform="matrix(0.05,0,0,0.05,22,0)" xlink:href="#aw"/><use transform="matrix(0.05,0,0,0.05,31,0)" xlink:href="#ax"/><use transform="matrix(0.05,0,0,0.05,40,0)" xlink:href="#ay"/><use transform="matrix(0.05,0,0,0.05,50,0)" xlink:href="#az"/></g><path d="M118-107v75H92v-75H18v-26h74v-75h26v75h74v26h-74" id="aA"/><use transform="matrix(0.05,0,0,0.05,0,0)" xlink:href="#aA" id="b"/><path d="M24-231v-30h32v30H24zM24 0v-190h32V0H24" id="aB"/><path d="M85-194c31 0 48 13 60 33l-1-100h32l1 261h-30c-2-10 0-23-3-31C134-8 116 4 85 4 32 4 16-35 15-94c0-66 23-100 70-100zm9 24c-40 0-46 34-46 75 0 40 6 74 45 74 42 0 51-32 51-76 0-42-9-74-50-73" id="aC"/><g id="c"><use transform="matrix(0.05,0,0,0.05,0,0)" xlink:href="#aB"/><use transform="matrix(0.05,0,0,0.05,3.95,0)" xlink:href="#aC"/></g><path d="M33-154v-36h34v36H33zM33 0v-36h34V0H33" id="aD"/><use transform="matrix(0.05,0,0,0.05,0,0)" xlink:href="#aD" id="d"/><path d="M84 4C-5 8 30-112 23-190h32v120c0 31 7 50 39 49 72-2 45-101 50-169h31l1 190h-30c-1-10 1-25-2-33-11 22-28 36-60 37" id="aE"/><path d="M117-194c89-4 53 116 60 194h-32v-121c0-31-8-49-39-48C34-167 62-67 57 0H25l-1-190h30c1 10-1 24 2 32 11-22 29-35 61-36" id="aF"/><path d="M135-143c-3-34-86-38-87 0 15 53 115 12 119 90S17 21 10-45l28-5c4 36 97 45 98 0-10-56-113-15-118-90-4-57 82-63 122-42 12 7 21 19 24 35" id="aG"/><path d="M177-190C167-65 218 103 67 71c-23-6-38-20-44-43l32-5c15 47 100 32 89-28v-30C133-14 115 1 83 1 29 1 15-40 15-95c0-56 16-97 71-98 29-1 48 16 59 35 1-10 0-23 2-32h30zM94-22c36 0 50-32 50-73 0-42-14-75-50-75-39 0-46 34-46 75s6 73 46 73" id="aH"/><path d="M100-194c63 0 86 42 84 106H49c0 40 14 67 53 68 26 1 43-12 49-29l28 8c-11 28-37 45-77 45C44 4 14-33 15-96c1-61 26-98 85-98zm52 81c6-60-76-77-97-28-3 7-6 17-6 28h103" id="aI"/><g id="e"><use transform="matrix(0.05,0,0,0.05,0,0)" xlink:href="#aE"/><use transform="matrix(0.05,0,0,0.05,10,0)" xlink:href="#aF"/><use transform="matrix(0.05,0,0,0.05,20,0)" xlink:href="#aG"/><use transform="matrix(0.05,0,0,0.05,29,0)" xlink:href="#aB"/><use transform="matrix(0.05,0,0,0.05,32.95,0)" xlink:href="#aH"/><use transform="matrix(0.05,0,0,0.05,42.95,0)" xlink:href="#aF"/><use transform="matrix(0.05,0,0,0.05,52.95,0)" xlink:href="#aI"/><use transform="matrix(0.05,0,0,0.05,62.95,0)" xlink:href="#aC"/></g><path d="M106-169C34-169 62-67 57 0H25v-261h32l-1 103c12-21 28-36 61-36 89 0 53 116 60 194h-32v-121c2-32-8-49-39-48" id="aJ"/><path d="M100-194c62-1 85 37 85 99 1 63-27 99-86 99S16-35 15-95c0-66 28-99 85-99zM99-20c44 1 53-31 53-75 0-43-8-75-51-75s-53 32-53 75 10 74 51 75" id="aK"/><path d="M114-163C36-179 61-72 57 0H25l-1-190h30c1 12-1 29 2 39 6-27 23-49 58-41v29" id="aL"/><path d="M59-47c-2 24 18 29 38 22v24C64 9 27 4 27-40v-127H5v-23h24l9-43h21v43h35v23H59v120" id="aM"/><g id="f"><use transform="matrix(0.05,0,0,0.05,0,0)" xlink:href="#aG"/><use transform="matrix(0.05,0,0,0.05,9,0)" xlink:href="#aJ"/><use transform="matrix(0.05,0,0,0.05,19,0)" xlink:href="#aK"/><use transform="matrix(0.05,0,0,0.05,29,0)" xlink:href="#aL"/><use transform="matrix(0.05,0,0,0.05,34.95,0)" xlink:href="#aM"/></g><g id="g"><use transform="matrix(0.05,0,0,0.05,0,0)" xlink:href="#aB"/><use transform="matrix(0.05,0,0,0.05,3.95,0)" xlink:href="#aF"/><use transform="matrix(0.05,0,0,0.05,13.949999999999998,0)" xlink:href="#aM"/></g><path d="M20-101c0-91 52-143 145-150 126-9 127 168 53 223-23 17-55 32-93 32C57 4 20-33 20-101zm216-33c5-57-18-91-73-90-77 1-110 51-110 125 0 49 23 75 73 75 72-1 104-45 110-110" id="aN"/><path d="M66-151c12-25 30-51 66-40l-6 26C45-176 58-65 38 0H6l36-190h30" id="aO"/><path d="M67-158c22-48 132-52 116 29L158 0h-32l25-140c3-38-53-32-70-12C52-117 51-52 38 0H6l36-190h30" id="aP"/><path d="M103-194c29 0 47 14 56 36 2-11 5-23 8-32h30L160-5C157 61 82 97 21 62 9 55 4 45 1 30l28-7c7 42 83 31 92-3 4-16 9-38 13-55-13 20-29 36-62 36-40 0-60-25-60-64 0-71 23-131 91-131zm4 24c-53 0-58 54-61 104-2 27 10 44 36 44 49 0 65-50 67-102 1-29-15-46-42-46" id="aQ"/><g id="h"><use transform="matrix(0.05,0,0,0.05,0,0)" xlink:href="#aN"/><use transform="matrix(0.05,0,0,0.05,14,0)" xlink:href="#aO"/><use transform="matrix(0.05,0,0,0.05,19.95,0)" xlink:href="#av"/><use transform="matrix(0.05,0,0,0.05,29.950000000000003,0)" xlink:href="#aP"/><use transform="matrix(0.05,0,0,0.05,39.95,0)" xlink:href="#aQ"/><use transform="matrix(0.05,0,0,0.05,49.95,0)" xlink:href="#ay"/><use transform="matrix(0.05,0,0,0.05,59.95,0)" xlink:href="#au"/><use transform="matrix(0.05,0,0,0.05,71.95,0)" xlink:href="#av"/><use transform="matrix(0.05,0,0,0.05,81.95,0)" xlink:href="#aw"/><use transform="matrix(0.05,0,0,0.05,90.95,0)" xlink:href="#ax"/><use transform="matrix(0.05,0,0,0.05,99.95,0)" xlink:href="#ay"/><use transform="matrix(0.05,0,0,0.05,109.95,0)" xlink:href="#az"/></g><path d="M115-194c55 1 70 41 70 98S169 2 115 4C84 4 66-9 55-30l1 105H24l-1-265h31l2 30c10-21 28-34 59-34zm-8 174c40 0 45-34 45-75s-6-73-45-74c-42 0-51 32-51 76 0 43 10 73 51 73" id="aR"/><g id="i"><use transform="matrix(0.05,0,0,0.05,0,0)" xlink:href="#aB"/><use transform="matrix(0.05,0,0,0.05,3.95,0)" xlink:href="#aR"/></g><g id="j"><use transform="matrix(0.05,0,0,0.05,0,0)" xlink:href="#aB"/><use transform="matrix(0.05,0,0,0.05,3.95,0)" xlink:href="#aF"/><use transform="matrix(0.05,0,0,0.05,13.949999999999998,0)" xlink:href="#aM"/></g><use transform="matrix(0.05,0,0,0.05,0,0)" xlink:href="#aA" id="k"/><path d="M115-194c53 0 69 39 70 98 0 66-23 100-70 100C84 3 66-7 56-30L54 0H23l1-261h32v101c10-23 28-34 59-34zm-8 174c40 0 45-34 45-75 0-40-5-75-45-74-42 0-51 32-51 76 0 43 10 73 51 73" id="aS"/><path d="M24 0v-261h32V0H24" id="aT"/><path d="M141-36C126-15 110 5 73 4 37 3 15-17 15-53c-1-64 63-63 125-63 3-35-9-54-41-54-24 1-41 7-42 31l-33-3c5-37 33-52 76-52 45 0 72 20 72 64v82c-1 20 7 32 28 27v20c-31 9-61-2-59-35zM48-53c0 20 12 33 32 33 41-3 63-29 60-74-43 2-92-5-92 41" id="aU"/><g id="l"><use transform="matrix(0.05,0,0,0.05,0,0)" xlink:href="#aS"/><use transform="matrix(0.05,0,0,0.05,10,0)" xlink:href="#aK"/><use transform="matrix(0.05,0,0,0.05,20,0)" xlink:href="#aK"/><use transform="matrix(0.05,0,0,0.05,30,0)" xlink:href="#aT"/><use transform="matrix(0.05,0,0,0.05,33.95,0)" xlink:href="#aI"/><use transform="matrix(0.05,0,0,0.05,43.95,0)" xlink:href="#aU"/><use transform="matrix(0.05,0,0,0.05,53.95,0)" xlink:href="#aF"/></g><use transform="matrix(0.05,0,0,0.05,0,0)" xlink:href="#aD" id="m"/><g id="n"><use transform="matrix(0.05,0,0,0.05,0,0)" xlink:href="#aS"/><use transform="matrix(0.05,0,0,0.05,10,0)" xlink:href="#aK"/><use transform="matrix(0.05,0,0,0.05,20,0)" xlink:href="#aK"/><use transform="matrix(0.05,0,0,0.05,30,0)" xlink:href="#aT"/></g><path d="M33 0v-248h34V0H33" id="aV"/><path d="M127-220V0H93v-220H8v-28h204v28h-85" id="aW"/><path d="M143 0L79-87 56-68V0H24v-261h32v163l83-92h37l-77 82L181 0h-38" id="aX"/><g id="o"><use transform="matrix(0.05,0,0,0.05,0,0)" xlink:href="#aV"/><use transform="matrix(0.05,0,0,0.05,5,0)" xlink:href="#aF"/><use transform="matrix(0.05,0,0,0.05,15,0)" xlink:href="#aB"/><use transform="matrix(0.05,0,0,0.05,18.95,0)" xlink:href="#aM"/><use transform="matrix(0.05,0,0,0.05,23.95,0)" xlink:href="#aB"/><use transform="matrix(0.05,0,0,0.05,27.899999999999995,0)" xlink:href="#aU"/><use transform="matrix(0.05,0,0,0.05,37.9,0)" xlink:href="#aT"/><use transform="matrix(0.05,0,0,0.05,41.85,0)" xlink:href="#aW"/><use transform="matrix(0.05,0,0,0.05,50.800000000000004,0)" xlink:href="#aK"/><use transform="matrix(0.05,0,0,0.05,60.800000000000004,0)" xlink:href="#aX"/><use transform="matrix(0.05,0,0,0.05,69.80000000000001,0)" xlink:href="#aI"/><use transform="matrix(0.05,0,0,0.05,79.80000000000001,0)" xlink:href="#aF"/></g><g id="p"><use transform="matrix(0.05,0,0,0.05,0,0)" xlink:href="#aW"/><use transform="matrix(0.05,0,0,0.05,8.950000000000001,0)" xlink:href="#aK"/><use transform="matrix(0.05,0,0,0.05,18.950000000000003,0)" xlink:href="#aX"/><use transform="matrix(0.05,0,0,0.05,27.950000000000003,0)" xlink:href="#aI"/><use transform="matrix(0.05,0,0,0.05,37.95,0)" xlink:href="#aF"/></g><g id="q"><use transform="matrix(0.05,0,0,0.05,0,0)" xlink:href="#aF"/><use transform="matrix(0.05,0,0,0.05,10,0)" xlink:href="#aK"/><use transform="matrix(0.05,0,0,0.05,20,0)" xlink:href="#aC"/><use transform="matrix(0.05,0,0,0.05,30,0)" xlink:href="#aI"/></g><g id="r"><use transform="matrix(0.05,0,0,0.05,0,0)" xlink:href="#aE"/><use transform="matrix(0.05,0,0,0.05,10,0)" xlink:href="#aF"/><use transform="matrix(0.05,0,0,0.05,20,0)" xlink:href="#aG"/><use transform="matrix(0.05,0,0,0.05,29,0)" xlink:href="#aB"/><use transform="matrix(0.05,0,0,0.05,32.95,0)" xlink:href="#aH"/><use transform="matrix(0.05,0,0,0.05,42.95,0)" xlink:href="#aF"/><use transform="matrix(0.05,0,0,0.05,52.95,0)" xlink:href="#aI"/><use transform="matrix(0.05,0,0,0.05,62.95,0)" xlink:href="#aC"/></g><g id="s"><use transform="matrix(0.05,0,0,0.05,0,0)" xlink:href="#aG"/><use transform="matrix(0.05,0,0,0.05,9,0)" xlink:href="#aJ"/><use transform="matrix(0.05,0,0,0.05,19,0)" xlink:href="#aK"/><use transform="matrix(0.05,0,0,0.05,29,0)" xlink:href="#aL"/><use transform="matrix(0.05,0,0,0.05,34.95,0)" xlink:href="#aM"/></g><g id="t"><use transform="matrix(0.05,0,0,0.05,0,0)" xlink:href="#aB"/><use transform="matrix(0.05,0,0,0.05,3.95,0)" xlink:href="#aF"/><use transform="matrix(0.05,0,0,0.05,13.949999999999998,0)" xlink:href="#aM"/></g><g id="u"><use transform="matrix(0.05,0,0,0.05,0,0)" xlink:href="#aB"/><use transform="matrix(0.05,0,0,0.05,3.95,0)" xlink:href="#aR"/></g><g id="v"><use transform="matrix(0.05,0,0,0.05,0,0)" xlink:href="#aR"/><use transform="matrix(0.05,0,0,0.05,10,0)" xlink:href="#aK"/><use transform="matrix(0.05,0,0,0.05,20,0)" xlink:href="#aL"/><use transform="matrix(0.05,0,0,0.05,25.950000000000003,0)" xlink:href="#aM"/></g><path d="M219-77C219 17 104-2 11 0l48-248c73 2 169-15 169 57 0 38-24 54-60 60 29 5 51 21 51 54zm-26-111c0-44-62-31-105-33l-16 79c55 0 121 9 121-46zm-7 110c-1-49-69-36-119-38L50-27c61-1 137 12 136-51" id="aY"/><path d="M6 0l50-261h32L37 0H6" id="aZ"/><path d="M67 3c-93-2-31-127-26-193h32L48-50c-3 39 53 32 70 12 30-34 30-101 43-152h32L157 0h-30c1-10 6-24 4-33-14 20-29 37-64 36" id="ba"/><g id="w"><use transform="matrix(0.05,0,0,0.05,0,0)" xlink:href="#aY"/><use transform="matrix(0.05,0,0,0.05,12,0)" xlink:href="#aZ"/><use transform="matrix(0.05,0,0,0.05,15.949999999999998,0)" xlink:href="#ba"/><use transform="matrix(0.05,0,0,0.05,25.950000000000003,0)" xlink:href="#ay"/><use transform="matrix(0.05,0,0,0.05,35.95,0)" xlink:href="#au"/><use transform="matrix(0.05,0,0,0.05,47.95,0)" xlink:href="#av"/><use transform="matrix(0.05,0,0,0.05,57.95,0)" xlink:href="#aw"/><use transform="matrix(0.05,0,0,0.05,66.95,0)" xlink:href="#ax"/><use transform="matrix(0.05,0,0,0.05,75.95,0)" xlink:href="#ay"/><use transform="matrix(0.05,0,0,0.05,85.95,0)" xlink:href="#az"/></g><path d="M210-169c-67 3-38 105-44 169h-31v-121c0-29-5-50-35-48C34-165 62-65 56 0H25l-1-190h30c1 10-1 24 2 32 10-44 99-50 107 0 11-21 27-35 58-36 85-2 47 119 55 194h-31v-121c0-29-5-49-35-48" id="bb"/><g id="x"><use transform="matrix(0.05,0,0,0.05,0,0)" xlink:href="#aF"/><use transform="matrix(0.05,0,0,0.05,10,0)" xlink:href="#aU"/><use transform="matrix(0.05,0,0,0.05,20,0)" xlink:href="#bb"/><use transform="matrix(0.05,0,0,0.05,34.95,0)" xlink:href="#aI"/></g><path d="M96-169c-40 0-48 33-48 73s9 75 48 75c24 0 41-14 43-38l32 2c-6 37-31 61-74 61-59 0-76-41-82-99-10-93 101-131 147-64 4 7 5 14 7 22l-32 3c-4-21-16-35-41-35" id="bc"/><path d="M26 75v-336h71v23H56V52h41v23H26" id="bd"/><path d="M27 0v-27h64v-190l-56 39v-29l58-41h29v221h61V0H27" id="be"/><path d="M101-251c68 0 85 55 85 127S166 4 100 4C33 4 14-52 14-124c0-73 17-127 87-127zm-1 229c47 0 54-49 54-102s-4-102-53-102c-51 0-55 48-55 102 0 53 5 102 54 102" id="bf"/><path d="M3 75V52h41v-290H3v-23h71V75H3" id="bg"/><g id="y"><use transform="matrix(0.05,0,0,0.05,0,0)" xlink:href="#bc"/><use transform="matrix(0.05,0,0,0.05,9,0)" xlink:href="#aJ"/><use transform="matrix(0.05,0,0,0.05,19,0)" xlink:href="#aU"/><use transform="matrix(0.05,0,0,0.05,29,0)" xlink:href="#aL"/><use transform="matrix(0.05,0,0,0.05,34.95,0)" xlink:href="#bd"/><use transform="matrix(0.05,0,0,0.05,39.95,0)" xlink:href="#be"/><use transform="matrix(0.05,0,0,0.05,49.95,0)" xlink:href="#bf"/><use transform="matrix(0.05,0,0,0.05,59.95,0)" xlink:href="#bg"/></g><path d="M197 0v-115H63V0H30v-248h33v105h134v-105h34V0h-34" id="bh"/><g id="z"><use transform="matrix(0.05,0,0,0.05,0,0)" xlink:href="#bh"/><use transform="matrix(0.05,0,0,0.05,12.950000000000001,0)" xlink:href="#aI"/><use transform="matrix(0.05,0,0,0.05,22.950000000000003,0)" xlink:href="#aT"/><use transform="matrix(0.05,0,0,0.05,26.900000000000002,0)" xlink:href="#aT"/><use transform="matrix(0.05,0,0,0.05,30.85,0)" xlink:href="#aK"/></g><g id="A"><use transform="matrix(0.05,0,0,0.05,0,0)" xlink:href="#aF"/><use transform="matrix(0.05,0,0,0.05,10,0)" xlink:href="#aK"/><use transform="matrix(0.05,0,0,0.05,20,0)" xlink:href="#aC"/><use transform="matrix(0.05,0,0,0.05,30,0)" xlink:href="#aI"/></g><path d="M212-179c-10-28-35-45-73-45-59 0-87 40-87 99 0 60 29 101 89 101 43 0 62-24 78-52l27 14C228-24 195 4 139 4 59 4 22-46 18-125c-6-104 99-153 187-111 19 9 31 26 39 46" id="bi"/><g id="B"><use transform="matrix(0.05,0,0,0.05,0,0)" xlink:href="#bi"/><use transform="matrix(0.05,0,0,0.05,12.950000000000001,0)" xlink:href="#aJ"/><use transform="matrix(0.05,0,0,0.05,22.950000000000003,0)" xlink:href="#aE"/><use transform="matrix(0.05,0,0,0.05,32.95,0)" xlink:href="#aF"/><use transform="matrix(0.05,0,0,0.05,42.95,0)" xlink:href="#aX"/></g><g id="C"><use transform="matrix(0.05,0,0,0.05,0,0)" xlink:href="#aM"/><use transform="matrix(0.05,0,0,0.05,5,0)" xlink:href="#aK"/><use transform="matrix(0.05,0,0,0.05,15,0)" xlink:href="#aM"/><use transform="matrix(0.05,0,0,0.05,20,0)" xlink:href="#aU"/><use transform="matrix(0.05,0,0,0.05,30,0)" xlink:href="#aT"/><use transform="matrix(0.05,0,0,0.05,33.95,0)" xlink:href="#bi"/><use transform="matrix(0.05,0,0,0.05,46.900000000000006,0)" xlink:href="#aJ"/><use transform="matrix(0.05,0,0,0.05,56.900000000000006,0)" xlink:href="#aE"/><use transform="matrix(0.05,0,0,0.05,66.9,0)" xlink:href="#aF"/><use transform="matrix(0.05,0,0,0.05,76.9,0)" xlink:href="#aX"/><use transform="matrix(0.05,0,0,0.05,85.9,0)" xlink:href="#aG"/></g><path d="M190 0L58-211 59 0H30v-248h39L202-35l-2-213h31V0h-41" id="bj"/><g id="D"><use transform="matrix(0.05,0,0,0.05,0,0)" xlink:href="#bc"/><use transform="matrix(0.05,0,0,0.05,9,0)" xlink:href="#aJ"/><use transform="matrix(0.05,0,0,0.05,19,0)" xlink:href="#aE"/><use transform="matrix(0.05,0,0,0.05,29,0)" xlink:href="#aF"/><use transform="matrix(0.05,0,0,0.05,39,0)" xlink:href="#aX"/><use transform="matrix(0.05,0,0,0.05,48,0)" xlink:href="#bj"/><use transform="matrix(0.05,0,0,0.05,60.95,0)" xlink:href="#aE"/><use transform="matrix(0.05,0,0,0.05,70.95,0)" xlink:href="#bb"/><use transform="matrix(0.05,0,0,0.05,85.9,0)" xlink:href="#aS"/><use transform="matrix(0.05,0,0,0.05,95.9,0)" xlink:href="#aI"/><use transform="matrix(0.05,0,0,0.05,105.9,0)" xlink:href="#aL"/></g><g id="E"><use transform="matrix(0.05,0,0,0.05,0,0)" xlink:href="#aC"/><use transform="matrix(0.05,0,0,0.05,10,0)" xlink:href="#aU"/><use transform="matrix(0.05,0,0,0.05,20,0)" xlink:href="#aM"/><use transform="matrix(0.05,0,0,0.05,25,0)" xlink:href="#aU"/></g><path d="M194 0L95-120 63-95V0H30v-248h33v124l119-124h40L117-140 236 0h-42" id="bk"/><path d="M160-131c35 5 61 23 61 61C221 17 115-2 30 0v-248c76 3 177-17 177 60 0 33-19 50-47 57zm-97-11c50-1 110 9 110-42 0-47-63-36-110-37v79zm0 115c55-2 124 14 124-45 0-56-70-42-124-44v89" id="bl"/><g id="F"><use transform="matrix(0.05,0,0,0.05,0,0)" xlink:href="#bc"/><use transform="matrix(0.05,0,0,0.05,9,0)" xlink:href="#aJ"/><use transform="matrix(0.05,0,0,0.05,19,0)" xlink:href="#aU"/><use transform="matrix(0.05,0,0,0.05,29,0)" xlink:href="#aL"/><use transform="matrix(0.05,0,0,0.05,34.95,0)" xlink:href="#bd"/><use transform="matrix(0.05,0,0,0.05,39.95,0)" xlink:href="#be"/><use transform="matrix(0.05,0,0,0.05,49.95,0)" xlink:href="#bf"/><use transform="matrix(0.05,0,0,0.05,59.95,0)" xlink:href="#bk"/><use transform="matrix(0.05,0,0,0.05,71.95,0)" xlink:href="#bl"/><use transform="matrix(0.05,0,0,0.05,83.95,0)" xlink:href="#bg"/></g><g id="G"><use transform="matrix(0.05,0,0,0.05,0,0)" xlink:href="#aJ"/><use transform="matrix(0.05,0,0,0.05,10,0)" xlink:href="#aK"/><use transform="matrix(0.05,0,0,0.05,20,0)" xlink:href="#aR"/><use transform="matrix(0.05,0,0,0.05,30,0)" xlink:href="#aG"/></g><path d="M30 0v-248h187v28H63v79h144v27H63v87h162V0H30" id="bm"/><path d="M141 0L90-78 38 0H4l68-98-65-92h35l48 74 47-74h35l-64 92 68 98h-35" id="bn"/><g id="H"><use transform="matrix(0.05,0,0,0.05,0,0)" xlink:href="#bm"/><use transform="matrix(0.05,0,0,0.05,12,0)" xlink:href="#bn"/><use transform="matrix(0.05,0,0,0.05,21,0)" xlink:href="#aB"/><use transform="matrix(0.05,0,0,0.05,24.95,0)" xlink:href="#aG"/><use transform="matrix(0.05,0,0,0.05,33.95,0)" xlink:href="#aM"/></g><path d="M145-31C134-9 116 4 85 4 32 4 16-35 15-94c0-59 17-99 70-100 32-1 48 14 60 33 0-11-1-24 2-32h30l-1 268h-32zM93-21c41 0 51-33 51-76s-8-73-50-73c-40 0-46 35-46 75s5 74 45 74" id="bo"/><g id="I"><use transform="matrix(0.05,0,0,0.05,0,0)" xlink:href="#bo"/><use transform="matrix(0.05,0,0,0.05,10,0)" xlink:href="#aE"/><use transform="matrix(0.05,0,0,0.05,20,0)" xlink:href="#aI"/><use transform="matrix(0.05,0,0,0.05,30,0)" xlink:href="#aG"/><use transform="matrix(0.05,0,0,0.05,39,0)" xlink:href="#aM"/><use transform="matrix(0.05,0,0,0.05,44,0)" xlink:href="#aB"/><use transform="matrix(0.05,0,0,0.05,47.95,0)" xlink:href="#aK"/><use transform="matrix(0.05,0,0,0.05,57.95,0)" xlink:href="#aF"/></g><g id="J"><use transform="matrix(0.05,0,0,0.05,0,0)" xlink:href="#aS"/><use transform="matrix(0.05,0,0,0.05,10,0)" xlink:href="#aK"/><use transform="matrix(0.05,0,0,0.05,20,0)" xlink:href="#aK"/><use transform="matrix(0.05,0,0,0.05,30,0)" xlink:href="#aT"/></g><g id="K"><use transform="matrix(0.05,0,0,0.05,0,0)" xlink:href="#aI"/><use transform="matrix(0.05,0,0,0.05,10,0)" xlink:href="#bn"/><use transform="matrix(0.05,0,0,0.05,19,0)" xlink:href="#aB"/><use transform="matrix(0.05,0,0,0.05,22.95,0)" xlink:href="#aG"/><use transform="matrix(0.05,0,0,0.05,31.950000000000003,0)" xlink:href="#aM"/></g><g id="L"><use transform="matrix(0.05,0,0,0.05,0,0)" xlink:href="#aS"/><use transform="matrix(0.05,0,0,0.05,10,0)" xlink:href="#aK"/><use transform="matrix(0.05,0,0,0.05,20,0)" xlink:href="#aK"/><use transform="matrix(0.05,0,0,0.05,30,0)" xlink:href="#aT"/></g><g id="M"><use transform="matrix(0.05,0,0,0.05,0,0)" xlink:href="#bi"/><use transform="matrix(0.05,0,0,0.05,12.950000000000001,0)" xlink:href="#aK"/><use transform="matrix(0.05,0,0,0.05,22.950000000000003,0)" xlink:href="#bb"/><use transform="matrix(0.05,0,0,0.05,37.900000000000006,0)" xlink:href="#aR"/><use transform="matrix(0.05,0,0,0.05,47.900000000000006,0)" xlink:href="#aT"/><use transform="matrix(0.05,0,0,0.05,51.85,0)" xlink:href="#aI"/><use transform="matrix(0.05,0,0,0.05,61.85,0)" xlink:href="#aM"/><use transform="matrix(0.05,0,0,0.05,66.85000000000001,0)" xlink:href="#aI"/></g><path d="M143 4C61 4 22-44 18-125c-5-107 100-154 193-111 17 8 29 25 37 43l-32 9c-13-25-37-40-76-40-61 0-88 39-88 99 0 61 29 100 91 101 35 0 62-11 79-27v-45h-74v-28h105v86C228-13 192 4 143 4" id="bp"/><g id="N"><use transform="matrix(0.05,0,0,0.05,0,0)" xlink:href="#bp"/><use transform="matrix(0.05,0,0,0.05,14,0)" xlink:href="#aI"/><use transform="matrix(0.05,0,0,0.05,24,0)" xlink:href="#aM"/></g><g id="O"><use transform="matrix(0.05,0,0,0.05,0,0)" xlink:href="#bc"/><use transform="matrix(0.05,0,0,0.05,9,0)" xlink:href="#aJ"/><use transform="matrix(0.05,0,0,0.05,19,0)" xlink:href="#aE"/><use transform="matrix(0.05,0,0,0.05,29,0)" xlink:href="#aF"/><use transform="matrix(0.05,0,0,0.05,39,0)" xlink:href="#aX"/></g><use transform="matrix(0.05,0,0,0.05,0,0)" xlink:href="#aD" id="P"/><path d="M30 0v-248h33v221h125V0H30" id="bq"/><path d="M9 0v-24l116-142H16v-24h144v24L44-24h123V0H9" id="br"/><g id="Q"><use transform="matrix(0.05,0,0,0.05,0,0)" xlink:href="#bq"/><use transform="matrix(0.05,0,0,0.05,10,0)" xlink:href="#aK"/><use transform="matrix(0.05,0,0,0.05,20,0)" xlink:href="#bc"/><use transform="matrix(0.05,0,0,0.05,29,0)" xlink:href="#aU"/><use transform="matrix(0.05,0,0,0.05,39,0)" xlink:href="#aT"/><use transform="matrix(0.05,0,0,0.05,42.95,0)" xlink:href="#aB"/><use transform="matrix(0.05,0,0,0.05,46.900000000000006,0)" xlink:href="#br"/><use transform="matrix(0.05,0,0,0.05,55.900000000000006,0)" xlink:href="#aI"/></g><g id="R"><use transform="matrix(0.05,0,0,0.05,0,0)" xlink:href="#bc"/><use transform="matrix(0.05,0,0,0.05,9,0)" xlink:href="#aJ"/><use transform="matrix(0.05,0,0,0.05,19,0)" xlink:href="#aE"/><use transform="matrix(0.05,0,0,0.05,29,0)" xlink:href="#aF"/><use transform="matrix(0.05,0,0,0.05,39,0)" xlink:href="#aX"/></g><g id="S"><use transform="matrix(0.05,0,0,0.05,0,0)" xlink:href="#aB"/><use transform="matrix(0.05,0,0,0.05,3.95,0)" xlink:href="#aF"/><use transform="matrix(0.05,0,0,0.05,13.949999999999998,0)" xlink:href="#aM"/></g><path d="M30-248c118-7 216 8 213 122C240-48 200 0 122 0H30v-248zM63-27c89 8 146-16 146-99s-60-101-146-95v194" id="bs"/><g id="T"><use transform="matrix(0.05,0,0,0.05,0,0)" xlink:href="#bs"/><use transform="matrix(0.05,0,0,0.05,12.950000000000001,0)" xlink:href="#aI"/><use transform="matrix(0.05,0,0,0.05,22.950000000000003,0)" xlink:href="#aT"/><use transform="matrix(0.05,0,0,0.05,26.900000000000002,0)" xlink:href="#aI"/><use transform="matrix(0.05,0,0,0.05,36.900000000000006,0)" xlink:href="#aM"/><use transform="matrix(0.05,0,0,0.05,41.900000000000006,0)" xlink:href="#aI"/></g><path d="M140-251c81 0 123 46 123 126C263-46 219 4 140 4 59 4 17-45 17-125s42-126 123-126zm0 227c63 0 89-41 89-101s-29-99-89-99c-61 0-89 39-89 99S79-25 140-24" id="bt"/><g id="U"><use transform="matrix(0.05,0,0,0.05,0,0)" xlink:href="#bl"/><use transform="matrix(0.05,0,0,0.05,12,0)" xlink:href="#aT"/><use transform="matrix(0.05,0,0,0.05,15.949999999999998,0)" xlink:href="#aE"/><use transform="matrix(0.05,0,0,0.05,25.950000000000003,0)" xlink:href="#aI"/><use transform="matrix(0.05,0,0,0.05,35.95,0)" xlink:href="#bt"/><use transform="matrix(0.05,0,0,0.05,49.95,0)" xlink:href="#aL"/><use transform="matrix(0.05,0,0,0.05,55.900000000000006,0)" xlink:href="#aU"/><use transform="matrix(0.05,0,0,0.05,65.9,0)" xlink:href="#aF"/><use transform="matrix(0.05,0,0,0.05,75.9,0)" xlink:href="#aH"/><use transform="matrix(0.05,0,0,0.05,85.9,0)" xlink:href="#aI"/></g><path d="M205 0l-28-72H64L36 0H1l101-248h38L239 0h-34zm-38-99l-47-123c-12 45-31 82-46 123h93" id="bu"/><g id="V"><use transform="matrix(0.05,0,0,0.05,0,0)" xlink:href="#bu"/><use transform="matrix(0.05,0,0,0.05,12,0)" xlink:href="#aG"/><use transform="matrix(0.05,0,0,0.05,21,0)" xlink:href="#aG"/><use transform="matrix(0.05,0,0,0.05,30,0)" xlink:href="#aB"/><use transform="matrix(0.05,0,0,0.05,33.95,0)" xlink:href="#aH"/><use transform="matrix(0.05,0,0,0.05,43.95,0)" xlink:href="#bb"/><use transform="matrix(0.05,0,0,0.05,58.900000000000006,0)" xlink:href="#aI"/><use transform="matrix(0.05,0,0,0.05,68.9,0)" xlink:href="#aF"/><use transform="matrix(0.05,0,0,0.05,78.9,0)" xlink:href="#aM"/></g><g id="W"><use transform="matrix(0.05,0,0,0.05,0,0)" xlink:href="#aF"/><use transform="matrix(0.05,0,0,0.05,10,0)" xlink:href="#aK"/><use transform="matrix(0.05,0,0,0.05,20,0)" xlink:href="#aC"/><use transform="matrix(0.05,0,0,0.05,30,0)" xlink:href="#aI"/><use transform="matrix(0.05,0,0,0.05,40,0)" xlink:href="#aV"/><use transform="matrix(0.05,0,0,0.05,45,0)" xlink:href="#bs"/></g><g id="X"><use transform="matrix(0.05,0,0,0.05,0,0)" xlink:href="#aM"/><use transform="matrix(0.05,0,0,0.05,5,0)" xlink:href="#aK"/><use transform="matrix(0.05,0,0,0.05,15,0)" xlink:href="#aM"/><use transform="matrix(0.05,0,0,0.05,20,0)" xlink:href="#aU"/><use transform="matrix(0.05,0,0,0.05,30,0)" xlink:href="#aT"/><use transform="matrix(0.05,0,0,0.05,33.95,0)" xlink:href="#bj"/><use transform="matrix(0.05,0,0,0.05,46.900000000000006,0)" xlink:href="#aI"/><use transform="matrix(0.05,0,0,0.05,56.900000000000006,0)" xlink:href="#aB"/><use transform="matrix(0.05,0,0,0.05,60.85,0)" xlink:href="#aH"/><use transform="matrix(0.05,0,0,0.05,70.85000000000001,0)" xlink:href="#aJ"/><use transform="matrix(0.05,0,0,0.05,80.85000000000001,0)" xlink:href="#aS"/><use transform="matrix(0.05,0,0,0.05,90.85000000000001,0)" xlink:href="#aK"/><use transform="matrix(0.05,0,0,0.05,100.85000000000001,0)" xlink:href="#aL"/><use transform="matrix(0.05,0,0,0.05,106.80000000000001,0)" xlink:href="#aG"/></g><path d="M33 0v-38h34V0H33" id="bv"/><use transform="matrix(0.05,0,0,0.05,0,0)" xlink:href="#bv" id="Y"/><use transform="matrix(0.05,0,0,0.05,0,0)" xlink:href="#bv" id="Z"/><path d="M16-127c37-31 93-2 135 6 18-1 32-8 43-16v26c-50 42-130-35-178 9v-25" id="bw"/><path d="M87 75C49 33 22-17 22-94c0-76 28-126 65-167h31c-38 41-64 92-64 168S80 34 118 75H87" id="bx"/><path d="M33-261c38 41 65 92 65 168S71 34 33 75H2C39 34 66-17 66-93S39-220 2-261h31" id="by"/><g id="ab"><use transform="matrix(0.05,0,0,0.05,0,0)" xlink:href="#bw"/><use transform="matrix(0.05,0,0,0.05,10.5,0)" xlink:href="#bu"/><use transform="matrix(0.05,0,0,0.05,22.5,0)" xlink:href="#aG"/><use transform="matrix(0.05,0,0,0.05,31.5,0)" xlink:href="#aG"/><use transform="matrix(0.05,0,0,0.05,40.5,0)" xlink:href="#aB"/><use transform="matrix(0.05,0,0,0.05,44.45,0)" xlink:href="#aH"/><use transform="matrix(0.05,0,0,0.05,54.45,0)" xlink:href="#aF"/><use transform="matrix(0.05,0,0,0.05,64.45,0)" xlink:href="#bb"/><use transform="matrix(0.05,0,0,0.05,79.4,0)" xlink:href="#aI"/><use transform="matrix(0.05,0,0,0.05,89.4,0)" xlink:href="#aF"/><use transform="matrix(0.05,0,0,0.05,99.4,0)" xlink:href="#aM"/><use transform="matrix(0.05,0,0,0.05,104.4,0)" xlink:href="#bx"/><use transform="matrix(0.05,0,0,0.05,110.35000000000001,0)" xlink:href="#by"/></g><g id="ac"><use transform="matrix(0.05,0,0,0.05,0,0)" xlink:href="#bi"/><use transform="matrix(0.05,0,0,0.05,12.950000000000001,0)" xlink:href="#aK"/><use transform="matrix(0.05,0,0,0.05,22.950000000000003,0)" xlink:href="#aF"/><use transform="matrix(0.05,0,0,0.05,32.95,0)" xlink:href="#aF"/><use transform="matrix(0.05,0,0,0.05,42.95,0)" xlink:href="#aI"/><use transform="matrix(0.05,0,0,0.05,52.95,0)" xlink:href="#bc"/><use transform="matrix(0.05,0,0,0.05,61.95,0)" xlink:href="#aM"/></g><g id="ad"><use transform="matrix(0.05,0,0,0.05,0,0)" xlink:href="#bp"/><use transform="matrix(0.05,0,0,0.05,14,0)" xlink:href="#aK"/></g><g id="ae"><use transform="matrix(0.05,0,0,0.05,0,0)" xlink:href="#bp"/><use transform="matrix(0.05,0,0,0.05,14,0)" xlink:href="#aL"/><use transform="matrix(0.05,0,0,0.05,19.95,0)" xlink:href="#aI"/><use transform="matrix(0.05,0,0,0.05,29.950000000000003,0)" xlink:href="#aI"/><use transform="matrix(0.05,0,0,0.05,39.95,0)" xlink:href="#aF"/><use transform="matrix(0.05,0,0,0.05,49.95,0)" xlink:href="#bl"/><use transform="matrix(0.05,0,0,0.05,61.95,0)" xlink:href="#aT"/><use transform="matrix(0.05,0,0,0.05,65.9,0)" xlink:href="#aE"/><use transform="matrix(0.05,0,0,0.05,75.9,0)" xlink:href="#aI"/></g><g id="af"><use transform="matrix(0.05,0,0,0.05,0,0)" xlink:href="#bi"/><use transform="matrix(0.05,0,0,0.05,12.950000000000001,0)" xlink:href="#aJ"/><use transform="matrix(0.05,0,0,0.05,22.950000000000003,0)" xlink:href="#aE"/><use transform="matrix(0.05,0,0,0.05,32.95,0)" xlink:href="#aF"/><use transform="matrix(0.05,0,0,0.05,42.95,0)" xlink:href="#aX"/></g><g id="ag"><use transform="matrix(0.05,0,0,0.05,0,0)" xlink:href="#aM"/><use transform="matrix(0.05,0,0,0.05,5,0)" xlink:href="#aK"/><use transform="matrix(0.05,0,0,0.05,15,0)" xlink:href="#aM"/><use transform="matrix(0.05,0,0,0.05,20,0)" xlink:href="#aU"/><use transform="matrix(0.05,0,0,0.05,30,0)" xlink:href="#aT"/><use transform="matrix(0.05,0,0,0.05,33.95,0)" xlink:href="#bi"/><use transform="matrix(0.05,0,0,0.05,46.900000000000006,0)" xlink:href="#aJ"/><use transform="matrix(0.05,0,0,0.05,56.900000000000006,0)" xlink:href="#aE"/><use transform="matrix(0.05,0,0,0.05,66.9,0)" xlink:href="#aF"/><use transform="matrix(0.05,0,0,0.05,76.9,0)" xlink:href="#aX"/><use transform="matrix(0.05,0,0,0.05,85.9,0)" xlink:href="#aG"/></g><g id="ah"><use transform="matrix(0.05,0,0,0.05,0,0)" xlink:href="#bc"/><use transform="matrix(0.05,0,0,0.05,9,0)" xlink:href="#aJ"/><use transform="matrix(0.05,0,0,0.05,19,0)" xlink:href="#aE"/><use transform="matrix(0.05,0,0,0.05,29,0)" xlink:href="#aF"/><use transform="matrix(0.05,0,0,0.05,39,0)" xlink:href="#aX"/><use transform="matrix(0.05,0,0,0.05,48,0)" xlink:href="#bj"/><use transform="matrix(0.05,0,0,0.05,60.95,0)" xlink:href="#aE"/><use transform="matrix(0.05,0,0,0.05,70.95,0)" xlink:href="#bb"/><use transform="matrix(0.05,0,0,0.05,85.9,0)" xlink:href="#aS"/><use transform="matrix(0.05,0,0,0.05,95.9,0)" xlink:href="#aI"/><use transform="matrix(0.05,0,0,0.05,105.9,0)" xlink:href="#aL"/></g><g id="ai"><use transform="matrix(0.05,0,0,0.05,0,0)" xlink:href="#aC"/><use transform="matrix(0.05,0,0,0.05,10,0)" xlink:href="#aU"/><use transform="matrix(0.05,0,0,0.05,20,0)" xlink:href="#aM"/><use transform="matrix(0.05,0,0,0.05,25,0)" xlink:href="#aU"/></g><g id="aj"><use transform="matrix(0.05,0,0,0.05,0,0)" xlink:href="#bc"/><use transform="matrix(0.05,0,0,0.05,9,0)" xlink:href="#aJ"/><use transform="matrix(0.05,0,0,0.05,19,0)" xlink:href="#aU"/><use transform="matrix(0.05,0,0,0.05,29,0)" xlink:href="#aL"/><use transform="matrix(0.05,0,0,0.05,34.95,0)" xlink:href="#bd"/><use transform="matrix(0.05,0,0,0.05,39.95,0)" xlink:href="#be"/><use transform="matrix(0.05,0,0,0.05,49.95,0)" xlink:href="#bf"/><use transform="matrix(0.05,0,0,0.05,59.95,0)" xlink:href="#bk"/><use transform="matrix(0.05,0,0,0.05,71.95,0)" xlink:href="#bl"/><use transform="matrix(0.05,0,0,0.05,83.95,0)" xlink:href="#bg"/></g><g id="ak"><use transform="matrix(0.05,0,0,0.05,0,0)" xlink:href="#bm"/><use transform="matrix(0.05,0,0,0.05,12,0)" xlink:href="#bn"/><use transform="matrix(0.05,0,0,0.05,21,0)" xlink:href="#aB"/><use transform="matrix(0.05,0,0,0.05,24.95,0)" xlink:href="#aG"/><use transform="matrix(0.05,0,0,0.05,33.95,0)" xlink:href="#aM"/></g><g id="al"><use transform="matrix(0.05,0,0,0.05,0,0)" xlink:href="#aI"/><use transform="matrix(0.05,0,0,0.05,10,0)" xlink:href="#bn"/><use transform="matrix(0.05,0,0,0.05,19,0)" xlink:href="#aB"/><use transform="matrix(0.05,0,0,0.05,22.95,0)" xlink:href="#aG"/><use transform="matrix(0.05,0,0,0.05,31.950000000000003,0)" xlink:href="#aM"/><use transform="matrix(0.05,0,0,0.05,36.95,0)" xlink:href="#aD"/></g><g id="am"><use transform="matrix(0.05,0,0,0.05,0,0)" xlink:href="#bi"/><use transform="matrix(0.05,0,0,0.05,12.950000000000001,0)" xlink:href="#aK"/><use transform="matrix(0.05,0,0,0.05,22.950000000000003,0)" xlink:href="#bb"/><use transform="matrix(0.05,0,0,0.05,37.900000000000006,0)" xlink:href="#aR"/><use transform="matrix(0.05,0,0,0.05,47.900000000000006,0)" xlink:href="#aT"/><use transform="matrix(0.05,0,0,0.05,51.85,0)" xlink:href="#aI"/><use transform="matrix(0.05,0,0,0.05,61.85,0)" xlink:href="#aM"/><use transform="matrix(0.05,0,0,0.05,66.85000000000001,0)" xlink:href="#aI"/></g><g id="an"><use transform="matrix(0.05,0,0,0.05,0,0)" xlink:href="#bc"/><use transform="matrix(0.05,0,0,0.05,9,0)" xlink:href="#aK"/><use transform="matrix(0.05,0,0,0.05,19,0)" xlink:href="#bb"/><use transform="matrix(0.05,0,0,0.05,33.95,0)" xlink:href="#aR"/><use transform="matrix(0.05,0,0,0.05,43.95,0)" xlink:href="#aT"/><use transform="matrix(0.05,0,0,0.05,47.900000000000006,0)" xlink:href="#aI"/><use transform="matrix(0.05,0,0,0.05,57.900000000000006,0)" xlink:href="#aM"/><use transform="matrix(0.05,0,0,0.05,62.900000000000006,0)" xlink:href="#aI"/></g><g id="ao"><use transform="matrix(0.05,0,0,0.05,0,0)" xlink:href="#bq"/><use transform="matrix(0.05,0,0,0.05,10,0)" xlink:href="#aK"/><use transform="matrix(0.05,0,0,0.05,20,0)" xlink:href="#bc"/><use transform="matrix(0.05,0,0,0.05,29,0)" xlink:href="#aU"/><use transform="matrix(0.05,0,0,0.05,39,0)" xlink:href="#aT"/><use transform="matrix(0.05,0,0,0.05,42.95,0)" xlink:href="#aB"/><use transform="matrix(0.05,0,0,0.05,46.900000000000006,0)" xlink:href="#br"/><use transform="matrix(0.05,0,0,0.05,55.900000000000006,0)" xlink:href="#aI"/></g><g id="ap"><use transform="matrix(0.05,0,0,0.05,0,0)" xlink:href="#bo"/><use transform="matrix(0.05,0,0,0.05,10,0)" xlink:href="#aE"/><use transform="matrix(0.05,0,0,0.05,20,0)" xlink:href="#aI"/><use transform="matrix(0.05,0,0,0.05,30,0)" xlink:href="#aG"/><use transform="matrix(0.05,0,0,0.05,39,0)" xlink:href="#aM"/><use transform="matrix(0.05,0,0,0.05,44,0)" xlink:href="#aB"/><use transform="matrix(0.05,0,0,0.05,47.95,0)" xlink:href="#aK"/><use transform="matrix(0.05,0,0,0.05,57.95,0)" xlink:href="#aF"/></g><g id="aq"><use transform="matrix(0.05,0,0,0.05,0,0)" xlink:href="#aS"/><use transform="matrix(0.05,0,0,0.05,10,0)" xlink:href="#aK"/><use transform="matrix(0.05,0,0,0.05,20,0)" xlink:href="#aK"/><use transform="matrix(0.05,0,0,0.05,30,0)" xlink:href="#aT"/></g><g id="ar"><use transform="matrix(0.05,0,0,0.05,0,0)" xlink:href="#aR"/><use transform="matrix(0.05,0,0,0.05,10,0)" xlink:href="#aK"/><use transform="matrix(0.05,0,0,0.05,20,0)" xlink:href="#aL"/><use transform="matrix(0.05,0,0,0.05,25.950000000000003,0)" xlink:href="#aM"/></g><g id="as"><use transform="matrix(0.05,0,0,0.05,0,0)" xlink:href="#bs"/><use transform="matrix(0.05,0,0,0.05,12.950000000000001,0)" xlink:href="#aI"/><use transform="matrix(0.05,0,0,0.05,22.950000000000003,0)" xlink:href="#aT"/><use transform="matrix(0.05,0,0,0.05,26.900000000000002,0)" xlink:href="#aI"/><use transform="matrix(0.05,0,0,0.05,36.900000000000006,0)" xlink:href="#aM"/><use transform="matrix(0.05,0,0,0.05,41.900000000000006,0)" xlink:href="#aI"/></g><g id="at"><use transform="matrix(0.05,0,0,0.05,0,0)" xlink:href="#bk"/><use transform="matrix(0.05,0,0,0.05,12,0)" xlink:href="#aB"/><use transform="matrix(0.05,0,0,0.05,15.949999999999998,0)" xlink:href="#aT"/><use transform="matrix(0.05,0,0,0.05,19.9,0)" xlink:href="#aT"/></g></defs></g></svg>